<?xml version="1.0" encoding="UTF-8" standalone="no"?>
<!DOCTYPE svg PUBLIC "-//W3C//DTD SVG 1.1//EN"
 "http://www.w3.org/Graphics/SVG/1.1/DTD/svg11.dtd">
<!-- Generated by graphviz version 2.40.1 (20161225.0304)
 -->
<!-- Title: classes Pages: 1 -->
<svg width="2045pt" height="134pt"
 viewBox="0.00 0.00 2045.32 133.80" xmlns="http://www.w3.org/2000/svg" xmlns:xlink="http://www.w3.org/1999/xlink">
<g id="graph0" class="graph" transform="scale(1 1) rotate(0) translate(4 129.8)">
<title>classes</title>
<polygon fill="#ffffff" stroke="transparent" points="-4,4 -4,-129.8 2041.3178,-129.8 2041.3178,4 -4,4"/>
<!-- 0 -->
<g id="node1" class="node">
<title>0</title>
<polygon fill="none" stroke="#000000" points="0,-.5 0,-125.3 152.0562,-125.3 152.0562,-.5 0,-.5"/>
<text text-anchor="middle" x="76.0281" y="-108.7" font-family="Times,serif" font-size="14.00" fill="#000000">Customer</text>
<polyline fill="none" stroke="#000000" points="0,-100.5 152.0562,-100.5 "/>
<text text-anchor="start" x="8" y="-83.9" font-family="Times,serif" font-size="14.00" fill="#000000">first_name</text>
<text text-anchor="start" x="8" y="-67.1" font-family="Times,serif" font-size="14.00" fill="#000000">last_name</text>
<polyline fill="none" stroke="#000000" points="0,-58.9 152.0562,-58.9 "/>
<text text-anchor="start" x="8" y="-42.3" font-family="Times,serif" font-size="14.00" fill="#000000">connect_to_db()</text>
<text text-anchor="start" x="8" y="-25.5" font-family="Times,serif" font-size="14.00" fill="#000000">get_customer_id()</text>
<text text-anchor="start" x="8" y="-8.7" font-family="Times,serif" font-size="14.00" fill="#000000">save_customer_details()</text>
</g>
<!-- 1 -->
<g id="node2" class="node">
<title>1</title>
<polygon fill="none" stroke="#000000" points="169.9895,-25.7 169.9895,-100.1 322.0667,-100.1 322.0667,-25.7 169.9895,-25.7"/>
<text text-anchor="middle" x="246.0281" y="-83.5" font-family="Times,serif" font-size="14.00" fill="#000000">DBConnection</text>
<polyline fill="none" stroke="#000000" points="169.9895,-75.3 322.0667,-75.3 "/>
<text text-anchor="start" x="177.9895" y="-58.7" font-family="Times,serif" font-size="14.00" fill="#000000">connection_config : dict</text>
<polyline fill="none" stroke="#000000" points="169.9895,-50.5 322.0667,-50.5 "/>
<text text-anchor="start" x="177.9895" y="-33.9" font-family="Times,serif" font-size="14.00" fill="#000000">create_connection()</text>
</g>
<!-- 2 -->
<g id="node3" class="node">
<title>2</title>
<polygon fill="none" stroke="#000000" points="339.8443,-8.9 339.8443,-116.9 620.2119,-116.9 620.2119,-8.9 339.8443,-8.9"/>
<text text-anchor="middle" x="480.0281" y="-100.3" font-family="Times,serif" font-size="14.00" fill="#000000">LibraryTube</text>
<polyline fill="none" stroke="#000000" points="339.8443,-92.1 620.2119,-92.1 "/>
<text text-anchor="start" x="347.8443" y="-75.5" font-family="Times,serif" font-size="14.00" fill="#000000">library_tube_barcode</text>
<polyline fill="none" stroke="#000000" points="339.8443,-67.3 620.2119,-67.3 "/>
<text text-anchor="start" x="347.8443" y="-50.7" font-family="Times,serif" font-size="14.00" fill="#000000">add_samples_to_library_tube(tagged_samples)</text>
<text text-anchor="start" x="347.8443" y="-33.9" font-family="Times,serif" font-size="14.00" fill="#000000">connect_to_db()</text>
<text text-anchor="start" x="347.8443" y="-17.1" font-family="Times,serif" font-size="14.00" fill="#000000">delete_samples_from_library_tube()</text>
</g>
<!-- 3 -->
<g id="node4" class="node">
<title>3</title>
<polygon fill="none" stroke="#000000" points="637.8303,-17.7 637.8303,-108.1 764.2259,-108.1 764.2259,-17.7 637.8303,-17.7"/>
<text text-anchor="middle" x="701.0281" y="-91.5" font-family="Times,serif" font-size="14.00" fill="#000000">MockDB</text>
<polyline fill="none" stroke="#000000" points="637.8303,-83.3 764.2259,-83.3 "/>
<polyline fill="none" stroke="#000000" points="637.8303,-59.3 764.2259,-59.3 "/>
<text text-anchor="start" x="645.8303" y="-42.7" font-family="Times,serif" font-size="14.00" fill="#000000">setUpClass(cls)</text>
<text text-anchor="start" x="645.8303" y="-25.9" font-family="Times,serif" font-size="14.00" fill="#000000">tearDownClass(cls)</text>
</g>
<!-- 4 -->
<g id="node5" class="node">
<title>4</title>
<polygon fill="none" stroke="#000000" points="782.2398,-.5 782.2398,-125.3 963.8164,-125.3 963.8164,-.5 782.2398,-.5"/>
<text text-anchor="middle" x="873.0281" y="-108.7" font-family="Times,serif" font-size="14.00" fill="#000000">Plate</text>
<polyline fill="none" stroke="#000000" points="782.2398,-100.5 963.8164,-100.5 "/>
<text text-anchor="start" x="790.2398" y="-83.9" font-family="Times,serif" font-size="14.00" fill="#000000">plate_barcode</text>
<polyline fill="none" stroke="#000000" points="782.2398,-75.7 963.8164,-75.7 "/>
<text text-anchor="start" x="790.2398" y="-59.1" font-family="Times,serif" font-size="14.00" fill="#000000">connect_to_db()</text>
<text text-anchor="start" x="790.2398" y="-42.3" font-family="Times,serif" font-size="14.00" fill="#000000">create_or_update_plate(state)</text>
<text text-anchor="start" x="790.2398" y="-25.5" font-family="Times,serif" font-size="14.00" fill="#000000">get_well_count()</text>
<text text-anchor="start" x="790.2398" y="-8.7" font-family="Times,serif" font-size="14.00" fill="#000000">update_plate_state(state)</text>
</g>
<!-- 5 -->
<g id="node6" class="node">
<title>5</title>
<polygon fill="none" stroke="#000000" points="981.7798,-9.3 981.7798,-116.5 1160.2764,-116.5 1160.2764,-9.3 981.7798,-9.3"/>
<text text-anchor="middle" x="1071.0281" y="-99.9" font-family="Times,serif" font-size="14.00" fill="#000000">ReceiveSampleTestCase</text>
<polyline fill="none" stroke="#000000" points="981.7798,-91.7 1160.2764,-91.7 "/>
<polyline fill="none" stroke="#000000" points="981.7798,-67.7 1160.2764,-67.7 "/>
<text text-anchor="start" x="989.7798" y="-51.1" font-family="Times,serif" font-size="14.00" fill="#000000">setUpClass(cls)</text>
<text text-anchor="start" x="989.7798" y="-34.3" font-family="Times,serif" font-size="14.00" fill="#000000">tearDownClass(cls)</text>
<text text-anchor="start" x="989.7798" y="-17.5" font-family="Times,serif" font-size="14.00" fill="#000000">test_save_customer_details()</text>
</g>
<!-- 6 -->
<g id="node7" class="node">
<title>6</title>
<polygon fill="none" stroke="#000000" points="1178.0694,-17.7 1178.0694,-108.1 1445.9868,-108.1 1445.9868,-17.7 1178.0694,-17.7"/>
<text text-anchor="middle" x="1312.0281" y="-91.5" font-family="Times,serif" font-size="14.00" fill="#000000">ReceiveSampleTestCase</text>
<polyline fill="none" stroke="#000000" points="1178.0694,-83.3 1445.9868,-83.3 "/>
<polyline fill="none" stroke="#000000" points="1178.0694,-59.3 1445.9868,-59.3 "/>
<text text-anchor="start" x="1186.0694" y="-42.7" font-family="Times,serif" font-size="14.00" fill="#000000">test_access_database_returns_values()</text>
<text text-anchor="start" x="1186.0694" y="-25.9" font-family="Times,serif" font-size="14.00" fill="#000000">test_save_customer_details(mock_customer)</text>
</g>
<!-- 7 -->
<g id="node8" class="node">
<title>7</title>
<polygon fill="none" stroke="#000000" points="1463.6956,-.5 1463.6956,-125.3 1760.3606,-125.3 1760.3606,-.5 1463.6956,-.5"/>
<text text-anchor="middle" x="1612.0281" y="-108.7" font-family="Times,serif" font-size="14.00" fill="#000000">Sample</text>
<polyline fill="none" stroke="#000000" points="1463.6956,-100.5 1760.3606,-100.5 "/>
<text text-anchor="start" x="1471.6956" y="-83.9" font-family="Times,serif" font-size="14.00" fill="#000000">sample_name</text>
<polyline fill="none" stroke="#000000" points="1463.6956,-75.7 1760.3606,-75.7 "/>
<text text-anchor="start" x="1471.6956" y="-59.1" font-family="Times,serif" font-size="14.00" fill="#000000">add_sample_tube_barcode(sample_tube_barcode)</text>
<text text-anchor="start" x="1471.6956" y="-42.3" font-family="Times,serif" font-size="14.00" fill="#000000">add_tag(tag)</text>
<text text-anchor="start" x="1471.6956" y="-25.5" font-family="Times,serif" font-size="14.00" fill="#000000">connect_to_db()</text>
<text text-anchor="start" x="1471.6956" y="-8.7" font-family="Times,serif" font-size="14.00" fill="#000000">save_sample(customer_id)</text>
</g>
<!-- 8 -->
<g id="node9" class="node">
<title>8</title>
<polygon fill="none" stroke="#000000" points="1778.7384,-.5 1778.7384,-125.3 2037.3178,-125.3 2037.3178,-.5 1778.7384,-.5"/>
<text text-anchor="middle" x="1908.0281" y="-108.7" font-family="Times,serif" font-size="14.00" fill="#000000">Well</text>
<polyline fill="none" stroke="#000000" points="1778.7384,-100.5 2037.3178,-100.5 "/>
<text text-anchor="start" x="1786.7384" y="-83.9" font-family="Times,serif" font-size="14.00" fill="#000000">plate_barcode</text>
<text text-anchor="start" x="1786.7384" y="-67.1" font-family="Times,serif" font-size="14.00" fill="#000000">well_position</text>
<polyline fill="none" stroke="#000000" points="1778.7384,-58.9 2037.3178,-58.9 "/>
<text text-anchor="start" x="1786.7384" y="-42.3" font-family="Times,serif" font-size="14.00" fill="#000000">add_sample_to_well(sample_name)</text>
<text text-anchor="start" x="1786.7384" y="-25.5" font-family="Times,serif" font-size="14.00" fill="#000000">connect_to_db()</text>
<text text-anchor="start" x="1786.7384" y="-8.7" font-family="Times,serif" font-size="14.00" fill="#000000">delete_samples_from_well(sample_names)</text>
</g>
</g>
</svg>
